<?xml version="1.0" encoding="UTF-8"?>
<!DOCTYPE svg PUBLIC "-//W3C//DTD SVG 1.1//EN" "http://www.w3.org/Graphics/SVG/1.1/DTD/svg11.dtd">
<!-- Creator: CorelDRAW 2021 (64-Bit) -->
<svg xmlns="http://www.w3.org/2000/svg" xml:space="preserve" width="1.50269in" height="1.14257in" version="1.1" style="shape-rendering:geometricPrecision; text-rendering:geometricPrecision; image-rendering:optimizeQuality; fill-rule:evenodd; clip-rule:evenodd"
viewBox="0 0 1502.69 1142.57"
 xmlns:xlink="http://www.w3.org/1999/xlink"
 xmlns:xodm="http://www.corel.com/coreldraw/odm/2003">
 <defs>
  <style type="text/css">
   <![CDATA[
    .fil2 {fill:#00A859}
    .fil1 {fill:#DA0116}
    .fil3 {fill:#373435;fill-rule:nonzero}
    .fil0 {fill:#DA0116;fill-rule:nonzero}
   ]]>
  </style>
 </defs>
 <g id="Layer_x0020_1">
  <metadata id="CorelCorpID_0Corel-Layer"/>
  <g id="_2374877066448">
   <g>
    <path class="fil0" d="M1079.16 400.81c26.55,-30.67 -24.96,-62.7 -11.17,-78.62 4.97,-5.74 11.39,-4.98 16.63,-0.22 4.29,3.88 6.05,8.72 4.88,13.46 -0.95,3.85 0.26,7.65 3.25,10.25l8.63 7.47c2.74,2.37 6.22,3.12 9.7,2.07 3.48,-1.05 5.97,-3.59 6.94,-7.08 4.15,-14.82 -2.29,-30.51 -17.54,-43.71 -19.19,-16.61 -41.77,-19.26 -56.8,-1.91 -28.39,32.27 25.33,62.79 10.64,79.76 -4.63,5.35 -11.63,5 -18.16,-0.65 -4.72,-4.09 -6.73,-9.2 -5.11,-14.73 1.16,-3.96 -0.02,-7.98 -3.14,-10.68l-8.26 -7.15c-2.73,-2.36 -6.18,-3.11 -9.64,-2.09 -3.46,1.02 -5.96,3.52 -6.97,6.98 -4.65,15.87 2.94,32.83 18.29,46.11 21.4,18.53 44.48,16.13 57.81,0.73z"/>
    <path class="fil0" d="M1013.74 295.28l25.79 -19.43c2.26,-1.71 3.43,-4.22 3.26,-7.06 -0.17,-2.83 -1.61,-5.19 -4.06,-6.63l-9.54 -5.58c-3.44,-2.01 -7.71,-1.32 -10.34,1.67l-20.03 22.8c-1.68,1.91 -2.35,4.24 -1.94,6.75 0.41,2.51 1.78,4.51 3.97,5.79l3.79 2.21c2.93,1.71 6.4,1.51 9.11,-0.53z"/>
    <path class="fil0" d="M940.35 345.59l6.54 2.48c3.56,1.35 7.22,0.92 10.37,-1.22 3.15,-2.14 4.9,-5.38 4.96,-9.19l1.61 -104.78c0.07,-4.85 -2.76,-9.03 -7.3,-10.76l-17.11 -6.49c-4.54,-1.72 -9.44,-0.48 -12.6,3.21l-68.29 79.49c-2.48,2.89 -3.32,6.48 -2.38,10.17 0.94,3.69 3.39,6.44 6.95,7.79l6.22 2.36c4.62,1.75 9.61,0.43 12.75,-3.39l4.05 -4.92c3.14,-3.81 8.13,-5.13 12.75,-3.38l27.11 10.28c4.61,1.75 7.47,6.05 7.3,10.99l-0.23 6.36c-0.18,4.93 2.68,9.24 7.3,10.99zm-5.8 -49.46l-27.92 -10.59 29.61 -36.21 -1.69 46.8z"/>
    <path class="fil0" d="M696.04 306.7l9.06 -1.57c3.41,-0.59 6.08,-2.63 7.55,-5.76 1.48,-3.13 1.34,-6.48 -0.37,-9.48l-53.04 -92.91c-2.19,-3.83 -6.34,-5.79 -10.69,-5.04l-19.45 3.37c-4.35,0.75 -7.6,3.99 -8.37,8.34l-18.69 105.34c-0.61,3.41 0.4,6.61 2.84,9.06 2.44,2.45 5.64,3.46 9.05,2.87l8.72 -1.51c4.42,-0.76 7.72,-4.11 8.41,-8.55l1.21 -7.75c0.69,-4.44 3.99,-7.78 8.41,-8.55l30.02 -5.2c4.42,-0.77 8.65,1.28 10.8,5.22l3.74 6.89c2.15,3.94 6.37,5.99 10.8,5.22zm-29.44 -39.74l-29.42 5.1 7.05 -46.25 22.37 41.15z"/>
    <path class="fil0" d="M490.35 379.87l7.89 -4.2c5,-2.67 6.9,-8.93 4.23,-13.93l-29.45 -55.19 53.01 46.71c3.28,2.89 7.79,3.42 11.65,1.36l8.42 -4.49c3.86,-2.06 5.93,-6.1 5.35,-10.44l-9.35 -69.79 29.37 55.04c2.67,5 8.92,6.9 13.92,4.23l7.89 -4.21c5,-2.67 6.9,-8.92 4.23,-13.92l-47.36 -88.75c-2.67,-5 -8.92,-6.9 -13.92,-4.23l-15.39 8.22c-3.78,2.02 -5.85,5.93 -5.39,10.19l9.05 82.94 -64.18 -53.56c-3.28,-2.74 -7.66,-3.19 -11.43,-1.18l-15.57 8.31c-5,2.67 -6.9,8.92 -4.24,13.92l47.37 88.75c2.67,5 8.92,6.9 13.92,4.23z"/>
    <path class="fil1" d="M843.54 188.66c3.74,-7.96 7.97,-16.16 11.67,-21.84 1.47,-2.26 1.97,-3.28 3.31,-3.5l2.6 -0.63c1.24,-0.44 5.67,-2.29 6.28,-3.56l64.12 -134.28c2.12,-4.43 2.34,-9.98 1.19,-13.29 -0.8,-2.32 -1.5,-3.31 -3.11,-5.33 -2.09,-2.62 -4.61,-3.96 -7.5,-5.35l-1.14 -0.55c-0.06,-0.03 -0.12,-0.06 -0.18,-0.08 -4.8,-2.3 -16.83,13.04 -18.7,15.48 -10.63,13.83 -18.47,26.9 -27.61,41.76 -4.12,6.7 -10.19,17.28 -13.81,23.98 -0.68,1.26 -1.89,3.07 -2.55,4.35l-7.34 13.43c-1.49,3.18 -3.3,5.99 -4.88,9.28 -0.57,1.2 -1.23,2.04 -2.35,4.43 -0.8,1.7 -1.56,2.79 -2.44,4.63 -1.6,3.35 -3.14,6.09 -4.79,9.54 -1.26,2.63 -2.4,5.94 -2.96,8.42 -0.99,4.46 -1.31,10.52 0.68,14.52 0.86,1.73 2.33,4.69 4.57,5.76 -2.07,9.41 -10.15,25.43 -16.14,36.85 -0.39,0.55 -0.74,1.15 -1.05,1.79l-0.87 1.83 -1.21 2.28c-4.72,8.89 -10.15,18.11 -14.5,26.48 -1.58,3.24 -5.2,8.94 -7.26,12.77 -1.74,3.21 -6,9.85 -7.44,12.69l-3.68 6.19c-1.16,-2.78 -2.18,-5.28 -2.96,-7.31 -0.83,-2.17 -3.91,-9.47 -4.78,-11.37 -10.06,-22.17 -19.41,-48.26 -26.69,-71.9 -1.78,-5.78 -5.12,-17.6 -3.35,-22.61 0.52,-1.49 3.64,-4.36 5.63,-9.86 1.74,-4.8 2.26,-9.89 2.19,-15.59 -0.11,-8.88 -2.17,-10.87 -4.54,-18.58l-3.32 -9.54c-0.7,-1.46 -1.06,-3.2 -1.56,-4.78 -0.37,-1.14 -0.56,-1.17 -0.91,-2.14 -0.3,-0.82 -0.56,-1.82 -0.82,-2.67l-9.09 -26.41c-0.38,-1.19 -0.61,-1.24 -0.98,-2.35 -1.16,-3.41 -2.2,-6.35 -3.22,-9.73 -0.5,-1.66 -1.09,-2.7 -1.66,-4.59 -0.93,-3.04 -3.64,-11.77 -7.19,-10.69 -2.67,0.82 -1.56,6.06 -0.65,8.96 2.36,7.52 22.19,71.19 22.45,73.09 0.52,3.78 -3.73,5.42 -5.83,2.39 -0.96,-1.39 -18.52,-57.15 -19.94,-61.8 -1.12,-3.65 -2.24,-7.92 -3.62,-11.09 -0.39,-0.91 -0.54,-1.91 -0.93,-2.81 -0.74,-1.74 -2.54,-5.33 -4.8,-4.63 -2.88,0.89 -0.73,6.31 0.22,9.42 0.57,1.85 1.13,3.71 1.71,5.56 0.63,1.99 0.82,3.45 1.49,5.62 1.16,3.78 2.32,7.56 3.49,11.33 1.23,3.99 2,7.3 3.2,11.18 1.16,3.78 2.33,7.56 3.49,11.33 1.21,3.93 1.97,7.2 3.2,11.18 1.68,5.47 3.67,11.2 4.9,16.74 0.85,3.82 -3.74,5.26 -5.71,2.02 -1.21,-1.98 -4.5,-13.89 -5.35,-16.62 -0.65,-2.1 -1.27,-3.3 -1.86,-5.26l-5.26 -17.12c-0.54,-1.77 -1.24,-3.2 -1.87,-5.26 -1.38,-4.48 -3.7,-13.58 -5.31,-17.04 -2.52,-5.41 -4.77,-20.5 -8.78,-19.26 -4.31,1.33 1.04,15.24 2.62,20.36 2.33,7.57 4.36,14.96 6.76,22.74 1.22,3.96 1.98,7.22 3.2,11.18 1.19,3.85 2.37,7.7 3.56,11.56 0.41,1.34 4.8,16 4.79,16.86 -0.08,3.61 -4.09,5.18 -6.04,1.68 -0.96,-1.71 -20.1,-65.07 -22.56,-73.02 -3.42,-11.05 -9.15,-8.48 -7.07,-0l1.91 6.96c0.3,1.11 0.13,1.17 0.44,2.28 0.43,1.54 1.07,3.14 1.45,4.67l1.21 4.73c0.58,1.88 0.69,3.07 1.2,4.73 0.49,1.57 1.15,3.24 1.39,4.83l6.28 23.23c0.57,1.82 0.89,3.2 1.23,4.74 0.34,1.56 1.07,3.31 1.5,4.89l2.34 9.24c0.45,1.54 1.17,3.36 1.5,4.89 0.72,3.29 1.49,5.64 3.09,8.61 2.5,4.63 6.24,9.4 9.61,12.41 3.11,2.78 6.55,5.17 10.56,6.41 3.96,1.23 4.5,2.53 6.63,6.46 0.67,1.23 1.39,2.87 1.93,4.08 2.33,5.21 4.65,12.59 6.39,18.16 0.55,1.76 0.62,2.83 1.21,4.73l0.21 0.68 -9.13 -0.55c-6.22,-0.37 -11.6,4.39 -11.98,10.61l-5.93 98.37c-0.37,6.22 4.39,11.6 10.62,11.98l6.87 0.41c6.22,0.37 11.6,-4.39 11.98,-10.61l3.7 -61.42 20.54 66.85c1.41,4.6 5.33,7.68 10.14,7.97l8.1 0.49c4.81,0.29 9.07,-2.31 11.03,-6.71l28.24 -63.72 -3.69 61.24c-0.37,6.22 4.39,11.6 10.61,11.98l6.87 0.41c6.22,0.38 11.6,-4.39 11.98,-10.61l5.93 -98.37c0.37,-6.22 -4.39,-11.6 -10.61,-11.98l-4.49 -0.27z"/>
    <path class="fil0" d="M1161.34 522.64c2.72,-1.38 5.51,-2.43 8.37,-3.14 5.57,-1.39 10.87,-1.88 15.89,-1.46 5.02,0.42 9.48,1.53 13.38,3.34 0.45,0.21 0.89,0.43 1.31,0.64 4.52,2.31 7.13,6.77 6.91,11.84 -0.18,4.11 -0.52,8.35 -1.03,12.71 -0.62,5.28 1.92,10.14 6.61,12.66 4.69,2.51 10.14,1.94 14.2,-1.5 1.25,-1.06 2.51,-2.1 3.78,-3.12 11.43,-9.2 22.44,-16.24 33.03,-21.11 10.59,-4.88 20.42,-7.46 29.47,-7.74 9.06,-0.28 16.52,2.37 22.37,7.94 5.85,5.57 8.43,12.68 7.73,21.32 -0.7,8.64 -3,18.05 -6.9,28.22 -3.9,10.17 -8.85,20.48 -14.84,30.94 -5.99,10.45 -11.35,20.14 -16.09,29.06 -4.74,8.92 -8.29,16.52 -10.66,22.79 -2.37,6.27 -1.88,10.38 1.46,12.33 2.79,1.67 7.73,0.91 14.84,-2.3 7.11,-3.2 15.05,-8.15 23.83,-14.84 8.78,-6.69 17.77,-14.49 26.96,-23.41 6.82,-6.61 13.03,-13.46 18.62,-20.53 4.17,-5.26 11.67,-6.38 17.19,-2.56 2.7,1.87 4.84,4 6.42,6.36 1.67,2.51 3,5.22 3.97,8.15 0.27,0.8 0.53,1.59 0.79,2.35 1.3,3.89 0.75,7.79 -1.56,11.17 -3.89,5.69 -8.58,11.7 -14.07,18.04 -7.25,8.36 -15.12,16.51 -23.62,24.46 -8.5,7.94 -17.56,15.19 -27.17,21.74 -9.61,6.55 -19.23,11.57 -28.85,15.05 -9.62,3.48 -19.02,5.09 -28.22,4.81 -9.2,-0.28 -17.56,-3.48 -25.08,-9.61 -8.64,-6.97 -13.59,-14.84 -14.84,-23.62 -1.26,-8.78 -0.42,-17.98 2.51,-27.59 2.93,-9.62 7.11,-19.16 12.54,-28.64 5.43,-9.48 10.45,-18.19 15.05,-26.13 4.6,-7.94 8.08,-14.84 10.45,-20.7 2.37,-5.85 2.02,-9.89 -1.04,-12.12 -3.63,-2.79 -8.92,-2.44 -15.89,1.04 -6.97,3.48 -14.63,8.85 -23,16.1 -8.36,7.24 -16.93,15.81 -25.71,25.71 -8.78,9.89 -16.8,19.86 -24.04,29.89 -6.69,16.44 -13.38,31.15 -20.07,44.11 -5.25,10.17 -9.82,18.33 -13.7,24.47 -2.05,3.25 -5.11,5.23 -8.91,5.78 -3.41,0.49 -6.89,0.65 -10.42,0.48 -5.57,-0.28 -10.73,-1.19 -15.47,-2.72 -2.59,-0.84 -5,-1.76 -7.21,-2.76 -3.48,-1.58 -5.86,-4.31 -6.93,-7.98 -1.08,-3.67 -0.56,-7.25 1.52,-10.46 7.92,-12.26 15.26,-25.05 22.04,-38.37 8.5,-16.72 15.68,-33.17 21.53,-49.33 5.85,-16.17 10.17,-31.77 12.96,-46.82 2.24,-12.09 3.13,-23.1 2.67,-33.04 -0.24,-5.1 2.38,-9.59 6.93,-11.9z"/>
    <path class="fil0" d="M1084.43 541.24c8.36,4.74 14,10.8 16.93,18.19 2.93,7.39 3.48,15.26 1.67,23.62 -1.81,8.36 -5.71,16.65 -11.7,24.87 -5.99,8.22 -13.59,15.4 -22.78,21.53 -9.2,6.13 -19.79,10.73 -31.77,13.8 -7.24,1.85 -14.78,2.79 -22.63,2.81 -4.58,0.01 -8.5,2.25 -10.85,6.17 -2.35,3.93 -2.46,8.44 -0.31,12.48 3.08,5.78 8.47,10.24 16.23,13.24 13.08,5.06 26.48,5.64 40.13,1.88 13.65,-3.76 26.34,-9.83 38.04,-18.19 11.7,-8.36 22.02,-17.91 30.94,-28.63 6.39,-7.69 11.43,-14.78 15.1,-21.25 2.98,-5.26 9.08,-7.66 14.85,-5.84 3.09,0.98 5.79,2.41 8.09,4.31 2.49,2.05 4.64,4.34 6.44,6.85 2.91,4.06 3.2,9.11 0.8,13.49 -4.69,8.52 -10.23,17 -16.64,25.43 -7.94,10.45 -16.79,20.14 -26.55,29.06 -9.76,8.92 -20.28,16.72 -31.57,23.41 -11.29,6.69 -22.85,11.56 -34.7,14.63 -11.85,3.07 -23.9,4.11 -36.17,3.14 -12.26,-0.98 -24.24,-4.67 -35.95,-11.08 -15.33,-8.36 -25.43,-19.44 -30.31,-33.24 -4.87,-13.8 -6.13,-28.36 -3.76,-43.69 2.37,-15.33 7.87,-30.38 16.51,-45.15 8.64,-14.77 18.88,-27.17 30.73,-37.2 11.85,-10.04 24.74,-16.8 38.67,-20.28 13.93,-3.48 27.45,-1.61 40.55,5.64zm-29.26 33.44c-3.63,-2.51 -7.67,-3.2 -12.13,-2.09 -4.46,1.11 -8.92,3.56 -13.38,7.31 -3.05,2.57 -6.03,5.6 -8.94,9.08 -3.79,4.52 -4.01,10.83 -0.55,15.6 3.46,4.77 9.52,6.52 15,4.33 6.97,-2.79 12.46,-6.12 16.45,-9.99 4.32,-4.18 6.9,-8.57 7.74,-13.17 0.83,-4.6 -0.56,-8.29 -4.18,-11.08z"/>
    <path class="fil0" d="M864.7 358.37c8.81,-1.2 16.98,-1 24.49,0.6 1.93,0.41 3.73,0.88 5.4,1.41 3.87,1.23 6.67,3.91 8.07,7.72 1.39,3.81 0.99,7.67 -1.16,11.11 -7.98,12.75 -15.71,25.93 -23.17,39.55 -9.48,17.28 -18.54,34.84 -27.18,52.67 -8.64,17.84 -16.65,35.61 -24.04,53.31 -1.08,2.58 -2.14,5.15 -3.19,7.72 -2.14,5.23 -0.69,11.01 3.68,14.6 4.37,3.59 10.31,3.91 15.04,0.81 9,-5.92 17.41,-10.29 25.24,-13.1 8.92,-3.2 17,-4.39 24.25,-3.56 7.25,0.84 13.1,4.04 17.56,9.62 4.74,6.13 7.11,13.59 7.11,22.37 0,8.78 -1.32,17.98 -3.97,27.59 -2.65,9.62 -6.06,19.3 -10.24,29.06 -4.18,9.75 -8.08,18.67 -11.71,26.76 -3.62,8.08 -6.34,15.05 -8.15,20.9 -1.81,5.85 -1.6,9.76 0.63,11.71 2.79,2.51 7.18,2.78 13.17,0.83 5.99,-1.95 13.1,-5.99 21.32,-12.13 8.22,-6.13 17.14,-14.42 26.76,-24.87 8.21,-8.93 16.57,-19.33 25.09,-31.2 3.03,-4.23 8.02,-6.13 13.1,-4.98 3.86,0.87 7.15,2.13 9.88,3.78 2.17,1.31 3.95,3.03 5.34,5.15 2.79,4.23 2.85,9.38 0.18,13.68 -10.69,17.19 -22.77,32.59 -36.24,46.19 -14.77,14.91 -29.54,26.76 -44.32,35.54 -14.77,8.78 -28.7,13.94 -41.8,15.47 -13.1,1.53 -23.55,-1.46 -31.36,-8.99 -5.57,-5.3 -8.78,-11.85 -9.61,-19.65 -0.83,-7.8 -0.42,-16.09 1.26,-24.87 1.67,-8.78 4.18,-17.77 7.52,-26.96 3.35,-9.2 6.55,-17.77 9.61,-25.71 3.07,-7.94 5.44,-14.91 7.11,-20.91 1.67,-5.99 1.67,-10.24 0,-12.75 -1.39,-1.95 -4.32,-2.16 -8.78,-0.63 -4.46,1.54 -10.04,4.53 -16.72,8.99 -6.69,4.46 -14.15,10.17 -22.37,17.14 -7.54,6.39 -15.38,13.72 -23.51,21.99 -1.52,1.54 -2.49,3.19 -3.11,5.26 -5.16,17.21 -9.31,32.87 -12.48,46.96 -2.47,11.01 -4.26,20.69 -5.35,29.04 -0.79,5.99 -5.52,10.49 -11.54,10.98 -0.63,0.06 -1.27,0.09 -1.92,0.11 -4.46,0.14 -8.71,-0.21 -12.75,-1.05 -3.92,-0.81 -7.44,-2.08 -10.57,-3.8 -4.66,-2.57 -7.15,-7.47 -6.46,-12.75 1.36,-10.48 3.77,-22.94 7.2,-37.37 4.18,-17.56 9.48,-36.79 15.89,-57.69 6.41,-20.91 13.8,-42.78 22.16,-65.64 8.36,-22.85 17.35,-45.5 26.96,-67.94 9.61,-22.43 19.65,-44.04 30.1,-64.8 9.44,-18.76 18.94,-35.88 28.5,-51.34 2.06,-3.34 5.2,-5.37 9.09,-5.9z"/>
    <path class="fil0" d="M692.28 584.72c-5.85,-8.08 -12.47,-11.98 -19.85,-11.71 -7.39,0.28 -14.7,3.14 -21.95,8.57 -7.25,5.44 -13.94,12.75 -20.07,21.95 -6.13,9.2 -10.73,18.67 -13.8,28.43 -3.06,9.76 -4.11,18.95 -3.13,27.59 0.98,8.64 4.81,15.19 11.5,19.65 8.08,5.29 17.28,7.45 27.59,6.48 10.31,-0.97 21.32,-4.74 33.03,-11.29 11.7,-6.55 23.83,-15.61 36.37,-27.17 12.54,-11.57 25.22,-25.29 38.04,-41.18 4.74,0 9.89,2.3 15.47,6.9 5.57,4.6 8.92,9.96 10.04,16.09 -6.13,10.31 -13.87,20.48 -23.2,30.52 -9.33,10.04 -19.44,19.3 -30.31,27.8 -10.87,8.5 -22.37,15.96 -34.49,22.37 -12.13,6.41 -24.25,11.01 -36.37,13.8 -12.13,2.79 -23.97,3.48 -35.54,2.09 -11.57,-1.39 -22.22,-5.71 -31.98,-12.96 -9.76,-7.25 -16.37,-16.38 -19.86,-27.39 -3.48,-11.01 -4.46,-22.85 -2.93,-35.54 1.53,-12.68 5.15,-25.5 10.87,-38.46 5.71,-12.96 12.75,-24.94 21.11,-35.96 8.36,-11.01 17.7,-20.48 28.01,-28.43 10.31,-7.94 20.83,-13.17 31.56,-15.68 10.73,-2.51 21.32,-1.81 31.78,2.09 10.45,3.9 20,12.26 28.63,25.08 -3.06,4.74 -6.13,8.92 -9.2,12.54 -2.79,3.07 -6.06,6.06 -9.82,8.99 -3.76,2.93 -7.59,4.53 -11.5,4.81z"/>
    <path class="fil0" d="M487.84 453.87c7.25,-1.39 14.63,-2.86 22.16,-4.39 4.3,-0.87 8.69,-1.73 13.17,-2.56 6.68,-1.24 11.89,-5.2 14.87,-11.3l16.87 -34.53c3.97,-8.12 12.28,-12.61 21.25,-11.48 5.08,0.64 9.72,2.2 13.9,4.69 1.41,0.83 2.75,1.7 4.02,2.58 8.76,6.1 11.48,17.72 6.32,27.06l-6.37 11.54c21.18,-3.06 42.78,-5.85 64.8,-8.36 22.02,-2.51 43.55,-4.46 64.59,-5.85 21.04,-1.39 41.32,-2.09 60.83,-2.09 15.41,0 29.69,0.52 42.83,1.56 7.42,0.59 13.51,4.67 16.87,11.31 1.41,2.79 2.56,5.61 3.42,8.45 1.95,6.41 3.06,12.61 3.34,18.61 0.17,3.74 0.07,7.35 -0.29,10.82 -1.19,11.18 -11.1,19.4 -22.31,18.49 -27.57,-2.23 -52.09,-4.27 -73.55,-6.11 -25.92,-2.23 -49.19,-4.04 -69.82,-5.43 -20.63,-1.39 -39.79,-2.3 -57.48,-2.72 -13.8,-0.33 -27.9,-0.27 -42.29,0.17 -7.76,0.23 -14.3,4.37 -17.85,11.28 -13.24,25.83 -24.76,49.4 -34.56,70.7 -11.15,24.25 -19.65,45.22 -25.5,62.92 -5.85,17.7 -8.92,31.84 -9.2,42.43 -0.28,10.59 2.65,17.14 8.78,19.65 4.74,2.23 9.83,2.72 15.26,1.46 5.44,-1.25 11.22,-4.46 17.35,-9.61 6.13,-5.16 12.82,-12.54 20.07,-22.16 7.25,-9.62 15.05,-21.95 23.41,-37 6.13,1.39 11.5,4.6 16.09,9.61 1.26,1.37 2.49,2.79 3.7,4.24 5.88,7.1 6.45,16.78 1.44,24.52 -10.26,15.86 -19.99,29.34 -29.18,40.43 -11.43,13.8 -22.5,24.25 -33.24,31.36 -10.73,7.11 -21.32,10.87 -31.77,11.29 -10.45,0.42 -21.11,-2.16 -31.98,-7.73 -6.74,-3.51 -12.21,-8.19 -16.41,-14.04 -3.37,-4.7 -7.98,-7.53 -13.69,-8.42 -5.72,-0.89 -10.96,0.42 -15.6,3.88 -7.58,5.67 -15.2,10.04 -22.87,13.14 -14.49,5.85 -28.85,5.85 -43.06,0 -11.43,-4.74 -18.74,-13.38 -21.95,-25.92 -3.2,-12.54 -3.62,-27.31 -1.26,-44.31 2.37,-17 7.11,-35.33 14.22,-54.98 6.23,-17.22 13.37,-34.17 21.42,-50.86 2.68,-5.56 7.14,-9.29 13.07,-10.96 1.67,-0.47 3.3,-0.81 4.9,-1.02 7.61,-1.02 14.65,1.9 19.3,8.01 4.65,6.11 5.58,13.68 2.56,20.74 -4.44,10.37 -8.76,20.34 -12.96,29.93 -6.41,14.63 -11.64,27.59 -15.68,38.88 -4.04,11.29 -6.41,20.76 -7.11,28.43 -0.7,7.67 1.19,12.89 5.65,15.68 3.62,2.23 8.08,2.72 13.38,1.46 5.3,-1.25 11.08,-4.11 17.35,-8.57 6.27,-4.46 12.82,-10.52 19.65,-18.19 6.2,-6.96 12.46,-15.13 18.78,-24.51 1.31,-1.94 2.15,-3.77 2.78,-6.02 5.52,-19.76 13.1,-41.15 22.76,-64.17 10.17,-24.25 21.53,-49.89 34.07,-76.93l-22.99 2.51c-2.23,-1.39 -3.9,-3.35 -5.02,-5.85 -1.12,-2.51 -1.81,-5.15 -2.09,-7.94 -0.28,-2.79 -0.35,-5.44 -0.21,-7.94 0.14,-2.51 0.48,-4.46 1.04,-5.85z"/>
    <path class="fil0" d="M356.57 611.06c3.9,-0.56 7.45,-0.14 10.66,1.25 3.2,1.39 5.99,3.28 8.36,5.65 0.94,0.94 1.82,1.91 2.65,2.91 5.08,6.15 5.7,14.45 1.57,21.29 -6.74,11.17 -14.14,21.78 -22.2,31.82 -10.17,12.68 -20.83,23.34 -31.98,31.98 -11.15,8.64 -22.44,14.77 -33.87,18.39 -11.43,3.62 -22.57,3.76 -33.44,0.42 -7.8,-2.51 -14.42,-6.48 -19.86,-11.91 -5.43,-5.44 -10.03,-11.99 -13.8,-19.65 -3.76,-7.67 -6.62,-16.03 -8.57,-25.09 -0.04,-0.2 -0.09,-0.4 -0.13,-0.6 -1.3,-6.11 -5.16,-10.78 -10.92,-13.19 -5.76,-2.41 -11.8,-1.89 -17.06,1.46 -2.41,1.54 -4.79,3.04 -7.13,4.52 -4.14,2.6 -6.81,6.24 -8.04,10.97 -3.84,14.73 -6.9,28.17 -9.19,40.31 -1.56,8.27 -2.75,15.8 -3.58,22.57 -1.15,9.35 -9.03,16.27 -18.45,16.2 -3.42,-0.02 -6.74,-0.34 -9.95,-0.94 -1.72,-0.32 -3.37,-0.7 -4.95,-1.12 -8.94,-2.43 -14.65,-10.93 -13.48,-20.13 1.18,-9.29 3,-19.98 5.47,-32.06 3.62,-17.7 8.36,-37.07 14.21,-58.11 5.85,-21.04 12.69,-43.06 20.49,-66.06 7.8,-22.99 16.17,-45.85 25.08,-68.56 8.92,-22.72 18.26,-44.59 28.01,-65.64 8.35,-18.02 16.81,-34.45 25.37,-49.3 2.99,-5.19 7.78,-8.37 13.73,-9.1 2.43,-0.3 4.87,-0.48 7.31,-0.54 4.02,-0.1 7.85,0.02 11.51,0.35 6.45,0.59 11.72,4.13 14.7,9.89 2.98,5.76 2.84,12.1 -0.41,17.72 -7.29,12.63 -14.29,25.6 -21,38.94 -9.89,19.65 -19.16,39.57 -27.8,59.78 -6.7,15.68 -12.99,31.31 -18.85,46.9 -3.02,8.04 -0.27,16.82 6.81,21.69 7.07,4.87 16.26,4.31 22.69,-1.37 8.05,-7.12 16.48,-14.34 25.3,-21.65 8.07,-6.69 16.39,-13.1 24.94,-19.22 6.75,-4.83 15.52,-4.65 22.07,0.44 3.29,2.56 6.15,5.54 8.59,8.96 1.95,2.73 3.56,5.63 4.82,8.69 3.61,8.75 0.09,18.72 -8.22,23.25 -5.61,3.06 -12.21,6.98 -19.8,11.75 -11.03,6.94 -23.04,14.57 -36.03,22.91 -5.74,3.68 -8.82,9.71 -8.46,16.52 0.26,4.96 0.6,9.72 1.01,14.3 0.7,7.8 1.95,14.7 3.76,20.69 1.81,5.99 4.18,10.87 7.11,14.63 2.93,3.76 6.62,5.92 11.08,6.48 5.02,0.83 10.31,0.21 15.89,-1.88 5.57,-2.09 11.57,-5.85 17.98,-11.29 6.41,-5.44 13.38,-12.75 20.9,-21.95 7.53,-9.2 15.89,-20.62 25.09,-34.28z"/>
    <path class="fil2" d="M1067.5 812.3c-0.88,-11.64 -3.85,-21.63 -20.89,-15.67 -14.06,4.92 -34.45,15.31 -48.1,18.12 0.03,-0.04 0.06,-0.09 0.09,-0.14 0.23,-0.35 0.47,-0.61 0.8,-0.87l8.49 -6.51c0.06,-0.05 0.12,-0.09 0.18,-0.13 17.02,-11.38 29.39,-21.59 43.77,-36.93 5.72,-6.09 9.46,-12.64 16.74,-13.42 1.72,-0.19 3.28,0.89 3.72,2.56 2.59,9.81 3.48,34.61 2.1,52.98 -0.13,1.81 -1.63,3.2 -3.45,3.21 -1.82,0 -3.33,-1.39 -3.47,-3.21z"/>
    <path class="fil1" d="M420.29 457.77c11.31,0 20.47,9.17 20.47,20.48 0,11.31 -9.17,20.48 -20.47,20.48 -11.31,0 -20.48,-9.17 -20.48,-20.48 0,-11.31 9.17,-20.48 20.48,-20.48z"/>
    <path class="fil2" d="M477.33 823.04c28.33,0.56 53.29,9.2 72.39,22.19 23.94,16.28 31.64,24.89 60.52,41.4 42.09,24.06 96.17,42.19 156.68,42.7 90.75,0.77 168.02,-24.09 235.18,-75.2 10.76,-8.19 17.24,-13.8 23.5,-19.65 1.35,-1.26 3.44,-1.24 4.77,0.03 1.33,1.28 1.43,3.36 0.24,4.76 -24.44,28.55 -56.46,56.04 -87.77,74.31 -107.87,62.94 -240.07,70.35 -350.77,12.19 -26.56,-13.95 -45.99,-27.44 -66.5,-44.19 -11.52,-9.41 -40.69,-37.22 -51.2,-53.17 -0.73,-1.1 -0.78,-2.43 -0.14,-3.58 0.64,-1.16 1.79,-1.82 3.11,-1.8z"/>
   </g>
   <path class="fil3" d="M56.18 1117.28l9.48 11.98 -7.9 0 -6.5 -8.22c-5.16,3.18 -11.02,4.76 -17.56,4.76 -9.45,0 -17.44,-3.24 -23.94,-9.7 -6.5,-6.46 -9.76,-14.29 -9.76,-23.47 0,-6.12 1.5,-11.8 4.47,-17.04 2.97,-5.24 7.04,-9.33 12.15,-12.28 5.13,-2.94 10.77,-4.42 16.91,-4.42 9.45,0 17.42,3.22 23.91,9.67 6.49,6.46 9.73,14.39 9.73,23.8 0,4.91 -0.89,9.39 -2.66,13.47 -1.78,4.07 -4.56,7.88 -8.33,11.44zm-3.93 -4.98c5.57,-5.43 8.36,-12.08 8.36,-19.99 0,-5.06 -1.19,-9.63 -3.54,-13.71 -2.37,-4.08 -5.69,-7.35 -9.97,-9.8 -4.29,-2.46 -8.81,-3.68 -13.56,-3.68 -4.78,0 -9.28,1.21 -13.5,3.65 -4.23,2.44 -7.54,5.75 -9.91,9.92 -2.38,4.17 -3.56,8.81 -3.56,13.93 0,7.56 2.62,13.95 7.87,19.15 5.25,5.22 11.59,7.82 19.02,7.82 5.07,0 9.67,-1.2 13.81,-3.61l-14.34 -18.13 7.9 0 11.43 14.45zm26.77 -35.21l6.04 0 0 21.99c0,5.37 0.3,9.05 0.87,11.07 0.86,2.89 2.53,5.16 4.97,6.83 2.44,1.67 5.37,2.51 8.76,2.51 3.39,0 6.26,-0.81 8.62,-2.44 2.35,-1.64 3.99,-3.77 4.88,-6.43 0.61,-1.82 0.92,-5.67 0.92,-11.55l0 -21.99 6.21 0 0 23.1c0,6.49 -0.75,11.37 -2.28,14.65 -1.51,3.3 -3.8,5.87 -6.85,7.72 -3.05,1.86 -6.86,2.8 -11.46,2.8 -4.6,0 -8.43,-0.93 -11.5,-2.8 -3.07,-1.85 -5.38,-4.45 -6.89,-7.78 -1.52,-3.33 -2.28,-8.34 -2.28,-15.02l0 -22.67zm95.26 31.5l5.12 2.69c-1.69,3.27 -3.62,5.91 -5.83,7.93 -2.2,2 -4.67,3.54 -7.43,4.59 -2.76,1.05 -5.87,1.57 -9.35,1.57 -7.72,0 -13.74,-2.52 -18.09,-7.54 -4.35,-5.03 -6.52,-10.7 -6.52,-17.04 0,-5.96 1.85,-11.28 5.53,-15.94 4.66,-5.93 10.91,-8.91 18.74,-8.91 8.06,0 14.51,3.05 19.31,9.13 3.42,4.29 5.16,9.64 5.22,16.07l-42.59 0c0.12,5.46 1.88,9.93 5.26,13.4 3.4,3.49 7.6,5.24 12.58,5.24 2.41,0 4.76,-0.41 7.04,-1.24 2.28,-0.83 4.22,-1.93 5.81,-3.3 1.59,-1.37 3.33,-3.58 5.17,-6.64zm0.06 -12.69c-0.81,-3.24 -2,-5.81 -3.55,-7.75 -1.57,-1.94 -3.62,-3.49 -6.18,-4.67 -2.56,-1.18 -5.25,-1.78 -8.06,-1.78 -4.66,0 -8.65,1.48 -12,4.45 -2.45,2.17 -4.29,5.41 -5.54,9.74l35.33 0zm18.57 -18.81l6.03 0 0 8.44c2.44,-3.22 5.13,-5.63 8.07,-7.22 2.96,-1.58 6.17,-2.38 9.65,-2.38 3.53,0 6.67,0.89 9.41,2.68 2.74,1.79 4.76,4.2 6.06,7.23 1.3,3.02 1.95,7.74 1.95,14.14l0 24.22 -6.04 0 0 -22.45c0,-5.41 -0.24,-9.04 -0.7,-10.85 -0.74,-3.11 -2.1,-5.44 -4.09,-7.03 -2,-1.57 -4.6,-2.35 -7.81,-2.35 -3.69,0 -6.98,1.21 -9.88,3.64 -2.91,2.41 -4.83,5.41 -5.75,8.99 -0.57,2.34 -0.87,6.59 -0.87,12.79l0 17.26 -6.03 0 0 -47.12zm100.64 9.79l-4.8 2.99c-4.17,-5.5 -9.87,-8.25 -17.08,-8.25 -5.77,0 -10.56,1.85 -14.37,5.53 -3.8,3.68 -5.71,8.15 -5.71,13.41 0,3.43 0.87,6.65 2.63,9.67 1.74,3.02 4.15,5.37 7.22,7.04 3.05,1.67 6.48,2.5 10.28,2.5 6.95,0 12.63,-2.75 17.04,-8.25l4.8 3.17c-2.26,3.39 -5.29,6 -9.09,7.88 -3.81,1.86 -8.15,2.8 -13.01,2.8 -7.48,0 -13.68,-2.37 -18.61,-7.08 -4.93,-4.73 -7.38,-10.47 -7.38,-17.24 0,-4.54 1.15,-8.77 3.46,-12.67 2.29,-3.91 5.46,-6.95 9.48,-9.14 4.04,-2.19 8.53,-3.28 13.52,-3.28 3.13,0 6.15,0.48 9.07,1.42 2.9,0.94 5.37,2.19 7.39,3.71 2.04,1.52 3.76,3.46 5.17,5.81zm12.37 -27.98l6.03 0 0 26.69c2.46,-3.22 5.18,-5.65 8.12,-7.24 2.96,-1.61 6.15,-2.41 9.6,-2.41 3.53,0 6.67,0.89 9.41,2.68 2.74,1.79 4.76,4.2 6.06,7.2 1.3,3.02 1.95,7.73 1.95,14.17l0 24.22 -6.04 0 0 -22.45c0,-5.41 -0.22,-9.04 -0.65,-10.85 -0.76,-3.11 -2.13,-5.44 -4.11,-7.03 -1.98,-1.57 -4.58,-2.35 -7.81,-2.35 -3.68,0 -6.98,1.21 -9.89,3.64 -2.91,2.41 -4.83,5.41 -5.77,8.99 -0.57,2.31 -0.87,6.57 -0.87,12.79l0 17.26 -6.03 0 0 -65.31zm74.36 18.19l6.3 0 16.26 36.13 15.79 -36.13 6.46 0 -28.13 64.33 -6.46 0 9.23 -21.09 -19.45 -43.24zm75.72 -1.15c7.26,0 13.3,2.62 18.07,7.87 4.35,4.78 6.52,10.44 6.52,16.98 0,6.57 -2.29,12.3 -6.89,17.21 -4.58,4.91 -10.5,7.37 -17.7,7.37 -7.25,0 -13.18,-2.46 -17.76,-7.37 -4.6,-4.91 -6.89,-10.65 -6.89,-17.21 0,-6.51 2.17,-12.16 6.52,-16.93 4.78,-5.28 10.83,-7.91 18.13,-7.91zm-0.03 5.94c-5.04,0 -9.36,1.85 -12.98,5.56 -3.62,3.71 -5.43,8.21 -5.43,13.47 0,3.39 0.83,6.55 2.47,9.49 1.66,2.93 3.89,5.19 6.7,6.79 2.8,1.6 5.89,2.4 9.24,2.4 3.36,0 6.45,-0.8 9.24,-2.4 2.81,-1.59 5.04,-3.86 6.7,-6.79 1.64,-2.94 2.47,-6.11 2.47,-9.49 0,-5.26 -1.82,-9.76 -5.46,-13.47 -3.63,-3.71 -7.94,-5.56 -12.96,-5.56zm35.74 -4.79l6.04 0 0 21.99c0,5.37 0.3,9.05 0.87,11.07 0.86,2.89 2.53,5.16 4.97,6.83 2.44,1.67 5.37,2.51 8.76,2.51 3.39,0 6.26,-0.81 8.62,-2.44 2.35,-1.64 3.99,-3.77 4.88,-6.43 0.61,-1.82 0.92,-5.67 0.92,-11.55l0 -21.99 6.21 0 0 23.1c0,6.49 -0.75,11.37 -2.28,14.65 -1.51,3.3 -3.8,5.87 -6.85,7.72 -3.05,1.86 -6.86,2.8 -11.46,2.8 -4.6,0 -8.43,-0.93 -11.5,-2.8 -3.07,-1.85 -5.38,-4.45 -6.89,-7.78 -1.52,-3.33 -2.28,-8.34 -2.28,-15.02l0 -22.67zm53.17 0l6.21 0 0 6.89c1.85,-2.72 3.8,-4.73 5.85,-6.06 2.06,-1.32 4.2,-1.98 6.42,-1.98 1.69,0 3.48,0.54 5.39,1.6l-3.17 5.09c-1.27,-0.55 -2.34,-0.83 -3.21,-0.83 -2.03,0 -3.98,0.83 -5.86,2.48 -1.88,1.66 -3.31,4.24 -4.3,7.73 -0.76,2.68 -1.12,8.11 -1.12,16.27l0 15.93 -6.21 0 0 -47.12zm54.31 -18.19l6.03 0 0 26.69c2.46,-3.22 5.18,-5.65 8.12,-7.24 2.96,-1.61 6.15,-2.41 9.6,-2.41 3.53,0 6.67,0.89 9.41,2.68 2.74,1.79 4.76,4.2 6.06,7.2 1.3,3.02 1.95,7.73 1.95,14.17l0 24.22 -6.04 0 0 -22.45c0,-5.41 -0.22,-9.04 -0.65,-10.85 -0.76,-3.11 -2.13,-5.44 -4.11,-7.03 -1.98,-1.57 -4.58,-2.35 -7.81,-2.35 -3.68,0 -6.98,1.21 -9.89,3.64 -2.91,2.41 -4.83,5.41 -5.77,8.99 -0.57,2.31 -0.87,6.57 -0.87,12.79l0 17.26 -6.03 0 0 -65.31zm54.06 18.19l6.04 0 0 21.99c0,5.37 0.3,9.05 0.87,11.07 0.86,2.89 2.53,5.16 4.97,6.83 2.44,1.67 5.37,2.51 8.76,2.51 3.39,0 6.26,-0.81 8.62,-2.44 2.35,-1.64 3.99,-3.77 4.88,-6.43 0.61,-1.82 0.92,-5.67 0.92,-11.55l0 -21.99 6.21 0 0 23.1c0,6.49 -0.75,11.37 -2.28,14.65 -1.51,3.3 -3.8,5.87 -6.85,7.72 -3.05,1.86 -6.86,2.8 -11.46,2.8 -4.6,0 -8.43,-0.93 -11.5,-2.8 -3.07,-1.85 -5.38,-4.45 -6.89,-7.78 -1.52,-3.33 -2.28,-8.34 -2.28,-15.02l0 -22.67zm55.48 0l6.03 0 0 8.44c2.44,-3.22 5.13,-5.63 8.07,-7.22 2.96,-1.58 6.17,-2.38 9.65,-2.38 3.53,0 6.67,0.89 9.41,2.68 2.74,1.79 4.76,4.2 6.06,7.23 1.3,3.02 1.95,7.74 1.95,14.14l0 24.22 -6.04 0 0 -22.45c0,-5.41 -0.24,-9.04 -0.7,-10.85 -0.74,-3.11 -2.1,-5.44 -4.09,-7.03 -2,-1.57 -4.6,-2.35 -7.81,-2.35 -3.69,0 -6.98,1.21 -9.88,3.64 -2.91,2.41 -4.83,5.41 -5.75,8.99 -0.57,2.34 -0.87,6.59 -0.87,12.79l0 17.26 -6.03 0 0 -47.12zm95.58 0l6.03 0 0 37.5c0,6.6 -0.57,11.43 -1.73,14.5 -1.58,4.31 -4.33,7.65 -8.27,9.98 -3.92,2.34 -8.64,3.5 -14.14,3.5 -4.04,0 -7.66,-0.57 -10.89,-1.71 -3.21,-1.15 -5.83,-2.69 -7.85,-4.63 -2.01,-1.92 -3.87,-4.76 -5.57,-8.47l6.56 0c1.79,3.13 4.1,5.46 6.94,6.96 2.83,1.51 6.35,2.26 10.53,2.26 4.14,0 7.63,-0.77 10.47,-2.29 2.85,-1.54 4.88,-3.46 6.09,-5.77 1.21,-2.32 1.82,-6.06 1.82,-11.25l0 -2.43c-2.28,2.88 -5.07,5.1 -8.37,6.64 -3.28,1.56 -6.79,2.32 -10.48,2.32 -4.33,0 -8.4,-1.08 -12.22,-3.22 -3.81,-2.15 -6.76,-5.04 -8.85,-8.67 -2.08,-3.64 -3.12,-7.63 -3.12,-11.98 0,-4.36 1.08,-8.41 3.25,-12.19 2.16,-3.76 5.16,-6.74 8.99,-8.93 3.83,-2.19 7.87,-3.28 12.11,-3.28 3.52,0 6.81,0.72 9.86,2.16 3.05,1.43 5.99,3.83 8.81,7.19l0 -8.19zm-17.91 4.7c-3.43,0 -6.63,0.83 -9.57,2.48 -2.94,1.66 -5.25,3.95 -6.92,6.88 -1.67,2.93 -2.52,6.09 -2.52,9.51 0,5.16 1.73,9.42 5.19,12.81 3.46,3.37 7.96,5.06 13.46,5.06 5.57,0 10.06,-1.67 13.44,-5.02 3.39,-3.36 5.09,-7.75 5.09,-13.2 0,-3.55 -0.78,-6.72 -2.33,-9.5 -1.55,-2.78 -3.77,-4.98 -6.63,-6.59 -2.85,-1.61 -5.93,-2.43 -9.21,-2.43zm77.41 26.8l5.12 2.69c-1.69,3.27 -3.62,5.91 -5.83,7.93 -2.2,2 -4.67,3.54 -7.43,4.59 -2.76,1.05 -5.87,1.57 -9.35,1.57 -7.72,0 -13.74,-2.52 -18.09,-7.54 -4.35,-5.03 -6.52,-10.7 -6.52,-17.04 0,-5.96 1.85,-11.28 5.53,-15.94 4.66,-5.93 10.91,-8.91 18.74,-8.91 8.06,0 14.51,3.05 19.31,9.13 3.42,4.29 5.16,9.64 5.22,16.07l-42.59 0c0.12,5.46 1.88,9.93 5.26,13.4 3.4,3.49 7.6,5.24 12.58,5.24 2.41,0 4.76,-0.41 7.04,-1.24 2.28,-0.83 4.22,-1.93 5.81,-3.3 1.59,-1.37 3.33,-3.58 5.17,-6.64zm0.06 -12.69c-0.81,-3.24 -2,-5.81 -3.55,-7.75 -1.57,-1.94 -3.62,-3.49 -6.18,-4.67 -2.56,-1.18 -5.25,-1.78 -8.06,-1.78 -4.66,0 -8.65,1.48 -12,4.45 -2.45,2.17 -4.29,5.41 -5.54,9.74l35.33 0zm16.26 -18.81l6.21 0 0 6.89c1.85,-2.72 3.8,-4.73 5.85,-6.06 2.06,-1.32 4.2,-1.98 6.42,-1.98 1.69,0 3.48,0.54 5.39,1.6l-3.17 5.09c-1.27,-0.55 -2.34,-0.83 -3.21,-0.83 -2.03,0 -3.98,0.83 -5.86,2.48 -1.88,1.66 -3.31,4.24 -4.3,7.73 -0.76,2.68 -1.12,8.11 -1.12,16.27l0 15.93 -6.21 0 0 -47.12zm35.81 35.41l5.83 2.78 -8.77 16.39 -4.27 -1.82 7.22 -17.35zm67.59 -30.29l-3.91 4.02c-3.24,-3.14 -6.42,-4.7 -9.51,-4.7 -1.97,0 -3.65,0.65 -5.06,1.95 -1.4,1.29 -2.11,2.81 -2.11,4.54 0,1.52 0.58,2.99 1.73,4.36 1.15,1.42 3.59,3.08 7.29,4.98 4.5,2.32 7.56,4.59 9.18,6.74 1.58,2.19 2.38,4.66 2.38,7.39 0,3.87 -1.36,7.15 -4.08,9.83 -2.72,2.68 -6.12,4.02 -10.2,4.02 -2.72,0 -5.31,-0.59 -7.79,-1.78 -2.47,-1.18 -4.51,-2.81 -6.14,-4.89l3.81 -4.33c3.09,3.49 6.39,5.24 9.87,5.24 2.43,0 4.5,-0.78 6.21,-2.33 1.7,-1.56 2.56,-3.39 2.56,-5.49 0,-1.73 -0.56,-3.27 -1.69,-4.63 -1.14,-1.33 -3.68,-3 -7.65,-5.01 -4.26,-2.19 -7.16,-4.35 -8.68,-6.48 -1.54,-2.13 -2.31,-4.56 -2.31,-7.29 0,-3.57 1.23,-6.52 3.67,-8.89 2.46,-2.35 5.55,-3.54 9.29,-3.54 4.35,0 8.73,2.09 13.13,6.27zm16.65 -22.69l6.03 0 0 17.57 9.58 0 0 5.24 -9.58 0 0 41.88 -6.03 0 0 -41.88 -8.25 0 0 -5.24 8.25 0 0 -17.57zm72.51 17.57l0 47.12 -6.03 0 0 -8.1c-2.54,3.09 -5.38,5.41 -8.55,6.95 -3.15,1.54 -6.61,2.31 -10.35,2.31 -6.65,0 -12.35,-2.41 -17.06,-7.23 -4.72,-4.83 -7.07,-10.69 -7.07,-17.61 0,-6.76 2.38,-12.56 7.14,-17.36 4.75,-4.8 10.47,-7.22 17.17,-7.22 3.86,0 7.35,0.81 10.49,2.44 3.12,1.63 5.87,4.08 8.24,7.38l0 -8.67 6.03 0zm-24.28 4.7c-3.37,0 -6.49,0.83 -9.33,2.48 -2.85,1.64 -5.11,3.96 -6.8,6.95 -1.69,2.99 -2.53,6.15 -2.53,9.5 0,3.3 0.84,6.46 2.54,9.48 1.7,3.02 3.98,5.37 6.85,7.04 2.87,1.69 5.94,2.53 9.23,2.53 3.3,0 6.45,-0.83 9.41,-2.5 2.97,-1.67 5.25,-3.92 6.85,-6.77 1.59,-2.84 2.39,-6.05 2.39,-9.61 0,-5.43 -1.79,-9.97 -5.38,-13.62 -3.58,-3.65 -7.99,-5.47 -13.22,-5.47zm33.65 -4.7l6.3 0 16.26 36.13 15.79 -36.13 6.46 0 -28.13 64.33 -6.46 0 9.23 -21.09 -19.45 -43.24zm118.73 31.5l5.12 2.69c-1.69,3.27 -3.62,5.91 -5.83,7.93 -2.2,2 -4.67,3.54 -7.43,4.59 -2.76,1.05 -5.87,1.57 -9.35,1.57 -7.72,0 -13.74,-2.52 -18.09,-7.54 -4.35,-5.03 -6.52,-10.7 -6.52,-17.04 0,-5.96 1.85,-11.28 5.53,-15.94 4.66,-5.93 10.91,-8.91 18.74,-8.91 8.06,0 14.51,3.05 19.31,9.13 3.42,4.29 5.16,9.64 5.22,16.07l-42.59 0c0.12,5.46 1.88,9.93 5.26,13.4 3.4,3.49 7.6,5.24 12.58,5.24 2.41,0 4.76,-0.41 7.04,-1.24 2.28,-0.83 4.22,-1.93 5.81,-3.3 1.59,-1.37 3.33,-3.58 5.17,-6.64zm0.06 -12.69c-0.81,-3.24 -2,-5.81 -3.55,-7.75 -1.57,-1.94 -3.62,-3.49 -6.18,-4.67 -2.56,-1.18 -5.25,-1.78 -8.06,-1.78 -4.66,0 -8.65,1.48 -12,4.45 -2.45,2.17 -4.29,5.41 -5.54,9.74l35.33 0zm38.09 -36.94l0 5.9c-2.23,-0.96 -4.15,-1.44 -5.75,-1.44 -1.2,0 -2.19,0.24 -2.97,0.71 -0.78,0.47 -1.29,1.02 -1.48,1.64 -0.2,0.62 -0.31,2.28 -0.31,4.95l0 6.36 9.89 0 0 5.24 -9.91 0 -0.03 41.88 -6.03 0 0 -41.88 -6.21 0 0 -5.24 6.21 0 0 -7.33c0,-3.37 0.31,-5.78 0.93,-7.22 0.62,-1.43 1.69,-2.6 3.18,-3.48 1.48,-0.87 3.28,-1.31 5.4,-1.31 1.97,0 4.33,0.4 7.08,1.21zm39.52 10.5l-6.03 0c-0.84,-3.96 -3.28,-5.94 -7.32,-5.94 -1.82,0 -3.33,0.4 -4.54,1.19 -1.21,0.8 -2.08,1.85 -2.62,3.16 -0.52,1.3 -0.78,3.7 -0.78,7.16l0 2.07 9.94 0 0 5.24 -9.94 0 0 41.88 -6.03 0 0 -41.88 -6.21 0 0 -5.24 6.21 0 0 -2.07c0,-4.52 0.52,-7.87 1.54,-10.04 1.02,-2.17 2.6,-3.92 4.75,-5.25 2.16,-1.31 4.75,-1.98 7.76,-1.98 3.81,0 6.92,1.09 9.32,3.27 2.41,2.19 3.72,5 3.96,8.44zm-6.03 7.63l6.03 0 0 47.12 -6.03 0 0 -47.12zm65.32 9.79l-4.8 2.99c-4.17,-5.5 -9.87,-8.25 -17.08,-8.25 -5.77,0 -10.56,1.85 -14.37,5.53 -3.8,3.68 -5.71,8.15 -5.71,13.41 0,3.43 0.87,6.65 2.63,9.67 1.74,3.02 4.15,5.37 7.22,7.04 3.05,1.67 6.48,2.5 10.28,2.5 6.95,0 12.63,-2.75 17.04,-8.25l4.8 3.17c-2.26,3.39 -5.29,6 -9.09,7.88 -3.81,1.86 -8.15,2.8 -13.01,2.8 -7.48,0 -13.68,-2.37 -18.61,-7.08 -4.93,-4.73 -7.38,-10.47 -7.38,-17.24 0,-4.54 1.15,-8.77 3.46,-12.67 2.29,-3.91 5.46,-6.95 9.48,-9.14 4.04,-2.19 8.53,-3.28 13.52,-3.28 3.13,0 6.15,0.48 9.07,1.42 2.9,0.94 5.37,2.19 7.39,3.71 2.04,1.52 3.76,3.46 5.17,5.81zm14.48 -29.13c1.37,0 2.54,0.49 3.52,1.48 0.98,0.98 1.46,2.17 1.46,3.55 0,1.36 -0.49,2.54 -1.46,3.52 -0.98,0.99 -2.15,1.48 -3.52,1.48 -1.36,0 -2.52,-0.49 -3.49,-1.48 -0.98,-0.98 -1.46,-2.16 -1.46,-3.52 0,-1.37 0.49,-2.57 1.46,-3.55 0.97,-0.99 2.13,-1.48 3.49,-1.48zm-3 19.34l6.03 0 0 47.12 -6.03 0 0 -47.12zm59.17 31.5l5.12 2.69c-1.69,3.27 -3.62,5.91 -5.83,7.93 -2.2,2 -4.67,3.54 -7.43,4.59 -2.76,1.05 -5.87,1.57 -9.35,1.57 -7.72,0 -13.74,-2.52 -18.09,-7.54 -4.35,-5.03 -6.52,-10.7 -6.52,-17.04 0,-5.96 1.85,-11.28 5.53,-15.94 4.66,-5.93 10.91,-8.91 18.74,-8.91 8.06,0 14.51,3.05 19.31,9.13 3.42,4.29 5.16,9.64 5.22,16.07l-42.59 0c0.12,5.46 1.88,9.93 5.26,13.4 3.4,3.49 7.6,5.24 12.58,5.24 2.41,0 4.76,-0.41 7.04,-1.24 2.28,-0.83 4.22,-1.93 5.81,-3.3 1.59,-1.37 3.33,-3.58 5.17,-6.64zm0.06 -12.69c-0.81,-3.24 -2,-5.81 -3.55,-7.75 -1.57,-1.94 -3.62,-3.49 -6.18,-4.67 -2.56,-1.18 -5.25,-1.78 -8.06,-1.78 -4.66,0 -8.65,1.48 -12,4.45 -2.45,2.17 -4.29,5.41 -5.54,9.74l35.33 0zm18.57 -18.81l6.03 0 0 8.44c2.44,-3.22 5.13,-5.63 8.07,-7.22 2.96,-1.58 6.17,-2.38 9.65,-2.38 3.53,0 6.67,0.89 9.41,2.68 2.74,1.79 4.76,4.2 6.06,7.23 1.3,3.02 1.95,7.74 1.95,14.14l0 24.22 -6.04 0 0 -22.45c0,-5.41 -0.24,-9.04 -0.7,-10.85 -0.74,-3.11 -2.1,-5.44 -4.09,-7.03 -2,-1.57 -4.6,-2.35 -7.81,-2.35 -3.69,0 -6.98,1.21 -9.88,3.64 -2.91,2.41 -4.83,5.41 -5.75,8.99 -0.57,2.34 -0.87,6.59 -0.87,12.79l0 17.26 -6.03 0 0 -47.12zm60.09 -17.57l6.03 0 0 17.57 9.58 0 0 5.24 -9.58 0 0 41.88 -6.03 0 0 -41.88 -8.25 0 0 -5.24 8.25 0 0 -17.57z"/>
  </g>
 </g>
</svg>
